<?xml version="1.0" encoding="UTF-8"?><svg id="a" xmlns="http://www.w3.org/2000/svg" xmlns:xlink="http://www.w3.org/1999/xlink" viewBox="0 0 250 100"><defs><linearGradient id="b" x1="84.33" y1="44.2" x2="32.2" y2="53.4" gradientUnits="userSpaceOnUse"><stop offset="0" stop-color="#c12233"/><stop offset=".3" stop-color="#b32738"/><stop offset=".8" stop-color="#120738"/></linearGradient></defs><path d="M84.89,47.35h-1.83c-.31.01-.92.05-1.25.13-.91.23-1.34.65-2.1,1.86-1.31,2.1-3.95,5.17-6.86,7.46l-3.54,2.77c2.29-4.83,2.74-11.42,1.42-16.15-.1-.34-.17-.63-.25-.89,3.3-1.89,7.69-.83,9.54,2.53.16.29.44.52.78.6,1.17.25,4.03.91,4.1,1.69ZM48.14,71.57c-3.01,1.43-5.92,3.19-8.9,4.69-.67.33-1.31.7-1.92,1.14-.4.28-.74.69.1.77.16.01,1.2,0,1.2,0-.46.52-2.45,2.16-1.16,1.75,1.21-.38,1.74-.58,3.08-1.2-.16.24-1.53,1.42-.33.92,2-.82,3.76-2.2,5.81-3.44-.25.32-.6,1.22-.29,1.18.35-.05,1.08-.47,3.26-1.95l.27-2.32c.1-.76.19-1.49.24-2.26-.38.23-.92.49-1.36.71ZM36.89,80c1.35,0,9.13-3.46,9.82-4.46-.53.75-1.52,2.09-1.25,2.65l3.54-2.77s.46-3.82.51-4.58c0,0-11.25,8.13-12.62,9.16ZM64.91,63.01c4.8-3.76,6.05-13.37,4.41-19.18h0c-.69-2.43-.62-2.38-1.76-6.24-3.27-11.07-3.21-17.59-3.21-17.59-4.57,8.62-4.82,9.83-1.25,23.35,1.89,7.14,1.23,8.82.66,10.04-.71,1.51-2.01,2.65-2.01,2.65-.03-2.34-.8-4.8-1.79-8.18-2.87-9.69-2.81-15.38-2.81-15.38-4,7.54-4.32,8.63-1.1,20.43,1.36,4.97,1.24,5.47.78,7.11-.47,1.68-2.21,3.15-2.21,3.15-.13-2.11-.76-3.26-1.61-6.15-2.45-8.32-2.41-13.19-2.41-13.19-3.44,6.47-4.06,7.5-.94,17.51,1.97,6.29,1.35,9.29.94,12.86l14.31-11.18Z" style="fill:url(#b);"/><path d="M81.29,56.43h4.54c.47,0,.86.11,1.18.32.31.21.52.5.62.85l3.2,12.16c.11.4.21.82.32,1.26.11.45.19.92.24,1.41.11-.5.22-.97.35-1.42.13-.44.25-.86.37-1.26l3.78-12.16c.1-.3.3-.57.62-.81.31-.24.7-.36,1.14-.36h1.6c.47,0,.86.1,1.16.31s.51.49.63.86l3.74,12.16c.12.37.24.77.37,1.19.13.42.24.87.34,1.35.08-.47.17-.92.26-1.34.09-.43.18-.83.28-1.2l3.2-12.16c.08-.31.29-.58.61-.82.32-.23.7-.35,1.15-.35h4.26l-7.2,23.31h-4.9l-4.38-14.45c-.07-.22-.15-.47-.23-.74s-.16-.55-.23-.85c-.07.3-.15.58-.23.85s-.16.51-.23.74l-4.45,14.45h-4.9l-7.2-23.31Z"/><path d="M122.18,71.12v8.62h-5.41v-23.31h7.58c1.69,0,3.12.17,4.31.52s2.16.83,2.91,1.45c.75.62,1.3,1.35,1.64,2.19.34.84.51,1.76.51,2.75,0,.76-.1,1.47-.3,2.14-.2.67-.5,1.29-.9,1.86-.4.57-.89,1.08-1.47,1.53-.58.45-1.25.82-2.01,1.1.36.18.7.41,1.02.67.31.27.59.59.82.98l4.96,8.11h-4.9c-.91,0-1.56-.34-1.95-1.02l-3.87-6.77c-.17-.3-.37-.51-.6-.64s-.55-.19-.97-.19h-1.38ZM122.18,67.39h2.18c.74,0,1.36-.09,1.88-.28.52-.19.94-.45,1.27-.78.33-.33.57-.72.72-1.16.15-.44.22-.92.22-1.43,0-1.02-.33-1.82-1-2.4-.67-.58-1.7-.86-3.1-.86h-2.18v6.91Z"/><path d="M152.28,56.43v4.16h-9.57v5.44h7.33v4h-7.33v5.55h9.57v4.16h-15.01v-23.31h15.01Z"/><path d="M157.39,56.46c.16.02.3.06.43.12s.25.14.37.25c.12.11.25.25.4.43l11.07,14c-.04-.45-.07-.88-.1-1.3-.02-.42-.03-.82-.03-1.19v-12.34h4.77v23.31h-2.82c-.42,0-.77-.06-1.06-.19s-.57-.36-.83-.7l-10.99-13.89c.03.41.06.8.08,1.19s.03.75.03,1.1v12.5h-4.77v-23.31h2.85c.23,0,.43.01.59.03Z"/><path d="M176.76,66.3c0-.38.07-.74.22-1.07.14-.33.34-.62.59-.86.25-.25.55-.44.89-.58s.71-.22,1.12-.22.76.07,1.1.22.64.34.9.58.46.53.6.86c.14.33.22.69.22,1.07s-.07.74-.22,1.08-.34.63-.6.87c-.26.25-.55.44-.9.58s-.71.21-1.1.21-.78-.07-1.12-.21-.64-.33-.89-.58c-.25-.25-.45-.54-.59-.87s-.22-.7-.22-1.08ZM176.76,77.23c0-.38.07-.74.22-1.07.14-.33.34-.62.59-.86.25-.25.55-.44.89-.58.34-.14.71-.22,1.12-.22s.76.07,1.1.22c.34.14.64.34.9.58.26.25.46.53.6.86.14.33.22.69.22,1.07s-.07.74-.22,1.08-.34.63-.6.87c-.26.25-.55.44-.9.58-.34.14-.71.21-1.1.21s-.78-.07-1.12-.21c-.34-.14-.64-.33-.89-.58-.25-.25-.45-.54-.59-.87s-.22-.7-.22-1.08Z"/><path d="M190.33,79.74h-5.44v-23.31h5.44v23.31Z"/><path d="M204.44,75.84c.75,0,1.41-.06,1.98-.19.58-.13,1.12-.3,1.63-.51v-3.54h-2.3c-.34,0-.61-.09-.8-.27-.19-.18-.29-.41-.29-.69v-2.98h8.29v9.84c-.6.44-1.22.81-1.86,1.13-.65.32-1.33.57-2.06.78-.73.2-1.51.35-2.34.45-.83.1-1.71.14-2.66.14-1.71,0-3.29-.3-4.74-.9-1.45-.6-2.71-1.43-3.77-2.5-1.06-1.06-1.89-2.32-2.5-3.78s-.9-3.04-.9-4.74.29-3.34.86-4.79,1.4-2.71,2.47-3.77c1.07-1.06,2.37-1.88,3.89-2.46,1.52-.59,3.22-.88,5.1-.88.97,0,1.88.08,2.74.24s1.64.38,2.36.66c.72.28,1.38.61,1.98.99.6.38,1.13.8,1.6,1.25l-1.57,2.38c-.15.22-.33.4-.54.53-.21.13-.43.19-.68.19-.32,0-.65-.11-.99-.32-.43-.26-.83-.48-1.21-.66-.38-.19-.77-.34-1.16-.46s-.81-.2-1.25-.26c-.44-.05-.93-.08-1.47-.08-1.01,0-1.93.18-2.74.54-.81.36-1.5.86-2.07,1.51-.57.65-1.01,1.43-1.32,2.34-.31.91-.46,1.93-.46,3.05,0,1.24.17,2.34.51,3.3s.81,1.77,1.42,2.43c.6.66,1.32,1.17,2.14,1.51s1.73.52,2.71.52Z"/></svg>