<?xml version="1.0" encoding="UTF-8"?><svg id="a" xmlns="http://www.w3.org/2000/svg" xmlns:xlink="http://www.w3.org/1999/xlink" viewBox="0 0 250 100"><defs><linearGradient id="b" x1="77.68" y1="67.46" x2="25.54" y2="76.65" gradientUnits="userSpaceOnUse"><stop offset="0" stop-color="#c12233"/><stop offset=".3" stop-color="#b32738"/><stop offset=".8" stop-color="#120738"/></linearGradient><linearGradient id="c" x1="73.27" y1="42.41" x2="21.13" y2="51.61" xlink:href="#b"/><linearGradient id="d" x1="74.28" y1="48.17" x2="22.14" y2="57.36" xlink:href="#b"/></defs><path d="M35.96,75.54c-.53.75-1.52,2.09-1.25,2.65l3.55-2.77s.46-3.82.51-4.58c0,0-11.25,8.13-12.62,9.16,1.35,0,9.13-3.46,9.82-4.46Z" style="fill:url(#b);"/><path d="M58.57,43.83c-.69-2.43-.62-2.38-1.76-6.24-3.27-11.07-3.21-17.59-3.21-17.59-4.57,8.62-4.82,9.83-1.25,23.35,1.89,7.14,1.23,8.82.66,10.04-.71,1.51-2.01,2.65-2.01,2.65-.03-2.34-.8-4.8-1.79-8.18-2.87-9.69-2.81-15.38-2.81-15.38-4.01,7.54-4.32,8.63-1.1,20.43,1.36,4.97,1.24,5.47.78,7.11-.47,1.68-2.21,3.15-2.21,3.15-.13-2.11-.76-3.26-1.61-6.15-2.45-8.32-2.41-13.19-2.41-13.19-3.44,6.47-4.06,7.5-.94,17.51,1.97,6.29,1.35,9.29.94,12.86l14.31-11.18c4.8-3.76,6.05-13.37,4.41-19.18Z" style="fill:url(#c);"/><path d="M70.04,45.66c-.33-.07-.62-.31-.78-.6-1.85-3.36-6.23-4.43-9.54-2.53.08.26.15.56.25.89,1.32,4.72.87,11.31-1.42,16.15l3.54-2.77c2.91-2.29,5.55-5.36,6.86-7.46.76-1.22,1.19-1.64,2.1-1.86.33-.08.94-.12,1.25-.12h1.83c-.07-.8-2.93-1.45-4.1-1.71Z" style="fill:url(#d);"/><path d="M70.54,56.46h4.54c.47,0,.86.11,1.18.32.31.21.52.5.62.85l3.2,12.16c.11.4.21.82.32,1.26.11.45.19.92.24,1.41.11-.5.22-.97.35-1.42.13-.44.25-.86.37-1.26l3.78-12.16c.1-.3.3-.57.62-.81.31-.24.7-.36,1.14-.36h1.6c.47,0,.86.1,1.16.31s.51.49.63.86l3.74,12.16c.12.37.24.77.37,1.19.13.42.24.87.34,1.35.08-.47.17-.92.26-1.34.09-.43.18-.83.28-1.2l3.2-12.16c.08-.31.29-.58.61-.82.32-.23.7-.35,1.15-.35h4.26l-7.2,23.31h-4.9l-4.38-14.45c-.07-.22-.15-.47-.23-.74s-.16-.55-.23-.85c-.07.3-.15.58-.23.85s-.16.51-.23.74l-4.45,14.45h-4.9l-7.2-23.31Z"/><path d="M111.43,71.15v8.62h-5.41v-23.31h7.58c1.69,0,3.12.17,4.31.52s2.16.83,2.91,1.45c.75.62,1.3,1.35,1.64,2.19.34.84.51,1.76.51,2.75,0,.76-.1,1.47-.3,2.14-.2.67-.5,1.29-.9,1.86-.4.57-.89,1.08-1.47,1.53-.58.45-1.25.82-2.01,1.1.36.18.7.41,1.02.67.31.27.59.59.82.98l4.96,8.11h-4.9c-.91,0-1.56-.34-1.95-1.02l-3.87-6.77c-.17-.3-.37-.51-.6-.64s-.55-.19-.97-.19h-1.38ZM111.43,67.42h2.18c.74,0,1.36-.09,1.88-.28.52-.19.94-.45,1.27-.78.33-.33.57-.72.72-1.16.15-.44.22-.92.22-1.43,0-1.02-.33-1.82-1-2.4-.67-.58-1.7-.86-3.1-.86h-2.18v6.91Z"/><path d="M141.53,56.46v4.16h-9.57v5.44h7.33v4h-7.33v5.55h9.57v4.16h-15.01v-23.31h15.01Z"/><path d="M146.63,56.5c.16.02.3.06.43.12s.25.14.37.25c.12.11.25.25.4.43l11.07,14c-.04-.45-.07-.88-.1-1.3-.02-.42-.03-.82-.03-1.19v-12.34h4.77v23.31h-2.82c-.42,0-.77-.06-1.06-.19s-.57-.36-.83-.7l-10.99-13.89c.03.41.06.8.08,1.19s.03.75.03,1.1v12.5h-4.77v-23.31h2.85c.23,0,.43.01.59.03Z"/><path d="M166.01,66.34c0-.38.07-.74.22-1.07.14-.33.34-.62.59-.86.25-.25.55-.44.89-.58s.71-.22,1.12-.22.76.07,1.1.22.64.34.9.58.46.53.6.86c.14.33.22.69.22,1.07s-.07.74-.22,1.08-.34.63-.6.87c-.26.25-.55.44-.9.58s-.71.21-1.1.21-.78-.07-1.12-.21-.64-.33-.89-.58c-.25-.25-.45-.54-.59-.87s-.22-.7-.22-1.08ZM166.01,77.26c0-.38.07-.74.22-1.07.14-.33.34-.62.59-.86.25-.25.55-.44.89-.58.34-.14.71-.22,1.12-.22s.76.07,1.1.22c.34.14.64.34.9.58.26.25.46.53.6.86.14.33.22.69.22,1.07s-.07.74-.22,1.08-.34.63-.6.87c-.26.25-.55.44-.9.58-.34.14-.71.21-1.1.21s-.78-.07-1.12-.21c-.34-.14-.64-.33-.89-.58-.25-.25-.45-.54-.59-.87s-.22-.7-.22-1.08Z"/><path d="M196.31,79.78h-4.19c-.47,0-.86-.11-1.16-.33-.3-.22-.52-.5-.63-.84l-1.38-4.06h-8.86l-1.38,4.06c-.11.3-.31.57-.62.81-.31.24-.69.36-1.14.36h-4.22l9.02-23.31h5.54l9.02,23.31ZM181.34,70.86h6.37l-2.14-6.38c-.14-.41-.3-.88-.49-1.43-.19-.55-.37-1.14-.55-1.78-.17.65-.35,1.25-.53,1.81-.18.55-.35,1.04-.51,1.44l-2.14,6.35Z"/><path d="M210.19,70.38c.2.44.39.89.57,1.35.18-.47.37-.93.58-1.37.2-.44.41-.87.62-1.29l5.98-11.79c.11-.2.22-.36.33-.47.11-.11.24-.19.38-.25.14-.05.3-.08.47-.08h4.74v23.3h-4.77v-13.41c0-.65.03-1.35.1-2.11l-6.18,11.98c-.19.37-.45.66-.78.85-.33.19-.7.29-1.11.29h-.74c-.42,0-.79-.1-1.11-.29-.33-.19-.58-.47-.78-.85l-6.21-12c.04.37.07.74.1,1.11s.03.71.03,1.02v13.41h-4.77v-23.3h4.74c.18,0,.33.03.47.08.14.05.26.14.38.25.11.11.22.27.33.47l6,11.84c.21.41.42.83.62,1.27Z"/></svg>